<svg width="50" height="42" viewBox="0 0 50 42" fill="none" xmlns="http://www.w3.org/2000/svg">
<path d="M28.2196 39.14C25.6727 34.5023 23.0562 37.3995 22.0767 39.14C16.9659 43.6255 11.6424 39.14 11.6424 35.1595V30.4828C5.24854 30.7928 1.90396 22.3848 1.0309 18.1422C0.387875 15.3914 0.280702 9.18265 4.99622 6.35334C13.3127 1.80929 20.4316 10.8673 22.9515 15.9643C23.3684 16.559 24.6659 17.3915 26.5204 15.9643C30.0753 5.8458 37.9843 4.0947 41.4944 4.48397C43.986 4.78597 48.9011 7.7003 48.6293 16.9416C48.3575 26.1829 41.8111 29.8196 38.5719 30.4828V35.1595C38.3254 41.0751 29.8206 42.0553 28.2196 39.14Z" fill="#FBF3E6"/>
<path d="M12.2604 2.3148C15.1457 -0.457016 21.5392 3.04349 22.3786 13.3557C24.1676 16.2249 24.7887 16.6381 24.8756 16.486C25.5924 15.5721 27.0261 13.6666 27.0261 13.3557C27.0261 12.967 30.4765 -1.95165 36.7636 2.31479" stroke="#493C34" stroke-width="2.5" stroke-linecap="round" stroke-linejoin="round"/>
<path d="M35.3304 5.96322C44.9986 8.75045 47.9236 16.6331 48.1776 20.226C50.5293 12.474 47.4961 7.48807 45.0698 5.17677C42.952 3.53542 36.3755 3.176 35.3304 5.96322Z" fill="#493C34"/>
<path d="M13.9818 6.40508C4.6131 9.10595 1.77868 16.7443 1.53255 20.2259C-0.746278 12.7141 2.19292 7.88268 4.54404 5.64299C6.59629 4.0525 12.969 3.70421 13.9818 6.40508Z" fill="#493C34"/>
<circle cx="11.6736" cy="17.2735" r="2.95246" fill="#493C34"/>
<circle cx="37.6772" cy="16.5132" r="2.95246" fill="#493C34"/>
<circle cx="14.3601" cy="24.96" r="2.34698" fill="#493C34"/>
<circle cx="35.3303" cy="24.96" r="2.34698" fill="#493C34"/>
</svg>
