<svg width="56" height="33" viewBox="0 0 56 33" fill="none" xmlns="http://www.w3.org/2000/svg">
<path d="M37.5912 32.0131H24.3038C27.2039 27.1192 34.2885 18.2488 39.4261 21.9185C44.5637 25.5883 40.3435 30.1773 37.5912 32.0131Z" fill="#34ADB6"/>
<path d="M37.7603 0.889829C32.0333 -0.834437 25.7264 1.04378 23.2889 2.19842C27.3429 5.09786 36.267 10.8351 39.5308 10.5888C43.6105 10.2809 44.9191 3.04516 37.7603 0.889829Z" fill="#34ADB6"/>
<path fill-rule="evenodd" clip-rule="evenodd" d="M21.6155 32.0132C30.6697 32.0132 38.383 27.9298 41.3145 22.2108C42.2785 21.5234 43.4014 22.1587 43.8992 22.6306L47.3962 25.2064C48.6417 26.164 51.7267 27.6336 54.1027 25.8503C56.4788 24.0671 54.811 20.5445 53.6801 19.0061C53.1799 18.3533 52.4796 16.7869 53.6801 15.7442C54.8806 14.7014 55.1007 12.0408 55.0607 10.8408C55.003 7.97626 53.447 7.98068 51.8334 7.98528C51.7687 7.98546 51.704 7.98564 51.6393 7.98564C49.1775 7.98564 45.8169 11.027 44.6764 12.3925C43.9504 13.2617 42.7457 13.4288 41.9209 13.3879C39.6 6.9508 31.3889 2.19299 21.6155 2.19299C10.0389 2.19299 0.654236 8.86847 0.654236 17.1031C0.654236 25.3377 10.0389 32.0132 21.6155 32.0132ZM10.1376 18.9133C12.1052 18.9133 13.7002 17.3183 13.7002 15.3508C13.7002 13.3832 12.1052 11.7882 10.1376 11.7882C8.17013 11.7882 6.57514 13.3832 6.57514 15.3508C6.57514 17.3183 8.17013 18.9133 10.1376 18.9133Z" fill="#493C34"/>
<path d="M23.0052 15.9229L15.6428 19.6014C16.0995 20.7418 14.9363 24.8564 14.1538 27C15.6336 28.1587 21.2505 27.8617 21.9798 27.3361C28.1516 22.888 25.235 17.8739 23.0052 15.9229Z" fill="#34ADB6"/>
</svg>
