<svg width="37" height="48" viewBox="0 0 37 48" fill="none" xmlns="http://www.w3.org/2000/svg">
<path fill-rule="evenodd" clip-rule="evenodd" d="M29.7506 28.0395C33.7484 25.1593 36.3026 20.7668 36.3026 15.8459C36.3026 7.17049 28.3644 0.137695 18.5722 0.137695C8.78001 0.137695 0.841861 7.17049 0.841861 15.8459C0.841861 20.6704 3.29684 24.9869 7.16042 27.8684C7.28087 28.3528 7.18792 28.8649 6.55862 28.8649C6.44533 28.8649 6.33362 28.8469 6.21433 28.8277C5.52892 28.7173 4.59357 28.5667 1.67367 31.5578C0.429794 33.0401 -1.31164 37.0739 1.67367 41.3513C3.75845 44.0528 5.63041 44.7658 6.30578 44.7845V38.1636C6.30578 37.326 7.8043 35.0889 9.28427 36.4555V42.9182C10.4829 44.594 13.6004 47.9291 16.4817 47.8628V38.1636C17.1579 37.2074 18.9738 35.8687 20.8284 38.1636V47.8628C23.0363 47.4642 27.452 45.9172 27.452 42.9182V37.4721C27.452 36.2301 29.0583 35.3525 30.1843 37.4721V44.7845C32.3336 44.8812 36.5978 43.3507 36.4599 36.4555C36.4599 33.3109 35.6227 29.9999 32.2321 28.9584C31.8948 28.9584 31.5777 28.971 31.289 28.9825C30.0715 29.0309 29.3567 29.0593 29.7506 28.0395ZM15.7443 28.1422C15.7443 29.938 14.2885 31.3937 12.4928 31.3937C10.697 31.3937 9.24127 29.938 9.24127 28.1422C9.24127 26.3465 10.697 24.8907 12.4928 24.8907C14.2885 24.8907 15.7443 26.3465 15.7443 28.1422ZM23.9958 31.3937C25.7915 31.3937 27.2472 29.938 27.2472 28.1422C27.2472 26.3465 25.7915 24.8907 23.9958 24.8907C22.2 24.8907 20.7443 26.3465 20.7443 28.1422C20.7443 29.938 22.2 31.3937 23.9958 31.3937Z" fill="#493C34"/>
</svg>
